<?xml version="1.0" encoding="UTF-8"?>
<svg width="36px" height="36px" viewBox="0 0 36 36" version="1.1" xmlns="http://www.w3.org/2000/svg" xmlns:xlink="http://www.w3.org/1999/xlink">
    <!-- Generator: Sketch 51.2 (57519) - http://www.bohemiancoding.com/sketch -->
    <title>logo</title>
    <desc>Created with Sketch.</desc>
    <defs></defs>
    <g id="Page-1" stroke="none" stroke-width="1" fill="none" fill-rule="evenodd">
        <g id="A3" transform="translate(-40.000000, -44.000000)" fill-rule="nonzero">
            <g id="logo" transform="translate(40.000000, 44.000000)">
                <path d="M36.0225836,18.0152428 C36.0225836,7.98145097 28.0658017,0 18.0107265,0 C7.95565141,0 0,7.98257925 0,18.0174994 C0,28.0501629 7.95904305,36.0248442 18.0118571,36.0248442 C28.0669322,36.0271008 36.0214531,28.0501629 36.0214531,18.0174994 L36.0248447,18.0152428 L36.0225836,18.0152428 Z" id="Shape" fill="#00D66C"></path>
                <path d="M25.8795479,20.1239015 L24.8793169,20.1239015 C23.8790858,20.1239015 23.452648,20.6568193 23.3075252,21.690323 C23.0552348,23.5822926 21.5571208,24.863302 19.5923812,24.863302 C17.3083714,24.863302 15.84598,23.1887361 15.84598,20.7605041 L15.84598,15.0567232 C15.84598,14.8281706 15.8124901,14.6274902 15.7566737,14.4479928 C15.9710089,14.5449883 16.2277646,14.5951584 16.5224756,14.5951584 L21.771456,14.5951584 C22.7739198,14.5951584 23.3432477,14.0232195 23.3432477,13.0265071 L23.3432477,12.5638275 C23.3432477,11.5637705 22.7739198,10.9940613 21.771456,10.9940613 L18.8109507,10.9940613 L18.8109507,7.77983138 C18.8109507,6.78311907 18.2371574,6.21118012 17.239159,6.21118012 L16.5224756,6.21118012 C15.5244772,6.21118012 14.9529165,6.78423396 14.9529165,7.77983138 L14.9529165,13.0253923 C14.9529165,13.2506002 14.9819411,13.4523954 15.0422229,13.6330077 C14.825655,13.5371271 14.5688993,13.4880719 14.2741883,13.4880719 L9.02520784,13.4880719 C8.02609309,13.4880719 7.45341615,14.058896 7.45341615,15.0567232 L7.45341615,15.5216326 C7.45341615,16.5205747 8.02609309,17.0913987 9.02520784,17.0913987 L11.9901785,17.0913987 L11.9901785,20.7593892 C11.9901785,25.3605433 14.9540329,28.5714286 19.5968465,28.5714286 C23.9192737,28.5714286 26.7748441,25.8232229 27.3106821,21.6880932 C27.4513396,20.6534746 26.7726114,20.1227866 25.8784316,20.1227866 L25.8795479,20.1239015 Z" id="Shape" fill="#FFFFFF"></path>
            </g>
        </g>
    </g>
</svg>